<svg xmlns="http://www.w3.org/2000/svg" width="30.027" height="34.003" viewBox="168.987 30.988 30.027 34.003"><path d="m197.977 38.523-12.692-7.26a2.09 2.09 0 0 0-2.832.752 2.045 2.045 0 0 0-.276.948 9.375 9.375 0 0 1-1.196 4.234 11.534 11.534 0 0 1-.154.274 18.046 18.046 0 0 1-2.256 2.983c-.743.82-1.553 1.628-2.385 2.456a284.003 284.003 0 0 0-.562.56 28.836 28.836 0 0 0-4.734 5.723 13.48 13.48 0 0 0-1.902 6.406 2.062 2.062 0 0 0-.001.077 2.053 2.053 0 0 0 1.035 1.78l12.692 7.26a2.082 2.082 0 0 0 1.034.275c.346 0 .692-.085 1.005-.256a2.07 2.07 0 0 0 .793-.77 2.04 2.04 0 0 0 .276-.95 9.39 9.39 0 0 1 1.198-4.234 11.476 11.476 0 0 1 .154-.274c1.134-1.945 2.837-3.642 4.642-5.436a299.559 299.559 0 0 0 .586-.585 28.786 28.786 0 0 0 4.707-5.7 13.473 13.473 0 0 0 1.903-6.406 2.049 2.049 0 0 0 .001-.074 2.056 2.056 0 0 0-1.036-1.783ZM183.75 62.937a318142.707 318142.707 0 0 0-6.22-3.559 27657.15 27657.15 0 0 0-6.472-3.7 11.513 11.513 0 0 1 1.674-5.538c2.778-4.698 8.244-7.835 10.506-12.833a11.232 11.232 0 0 0 1.01-4.265 50057.863 50057.863 0 0 1 6.361 3.638l.05.029a761747.291 761747.291 0 0 0 6.282 3.593 11.528 11.528 0 0 1-1.7 5.58c-3.504 5.875-11.197 9.317-11.491 17.055Zm3.52-16.985a3.466 3.466 0 0 0-.513-.191 2.38 2.38 0 0 0-.62-.094 3.39 3.39 0 0 0-.044 0 2.955 2.955 0 0 0-.974.159 3.659 3.659 0 0 0-.94.492c-.3.22-.6.45-.897.704a58.562 58.562 0 0 0-2.093-1.35c.183-.281.389-.454.613-.522.224-.07.449-.104.67-.107a17.422 17.422 0 0 0 .323-.009 10.086 10.086 0 0 0 .295-.014.616.616 0 0 0 .217-.053.557.557 0 0 0 .223-.19.692.692 0 0 0 .002-.001.676.676 0 0 0 .123-.389.745.745 0 0 0-.013-.138.823.823 0 0 0-.003-.014.723.723 0 0 0-.176-.335 1.054 1.054 0 0 0-.185-.16 1.33 1.33 0 0 0-.023-.016 1.416 1.416 0 0 0-.468-.206 1.35 1.35 0 0 0-.422-.028 2.48 2.48 0 0 0-.84.226 2.683 2.683 0 0 0-.085.042 3.243 3.243 0 0 0-.806.596 4.643 4.643 0 0 0-.246.267c-.077.091-.146.18-.205.266a2.56 2.56 0 0 0-.098.152 17.697 17.697 0 0 0-.102-.055 43.831 43.831 0 0 0-.142-.075.387.387 0 0 0-.18-.045.427.427 0 0 0-.117.017.353.353 0 0 0-.223.176.5.5 0 0 0-.015.029.44.44 0 0 0-.03.082.37.37 0 0 0-.012.092.345.345 0 0 0 .026.132.368.368 0 0 0 .195.217 27.515 27.515 0 0 0 .074.034 12.567 12.567 0 0 1 .166.078 4.7 4.7 0 0 0-.363 1.17 3.734 3.734 0 0 0-.055.505c-.009.22.004.43.036.634a2.292 2.292 0 0 0 .156.557 2.056 2.056 0 0 0 .208.374c.187.268.454.467.807.628a2.313 2.313 0 0 0 .97.214c.21 0 .423-.028.64-.083a3.125 3.125 0 0 0 .2-.058c.572-.19 1.152-.514 1.729-1.015a6.716 6.716 0 0 0 .178-.16c.774.52 1.548 1.033 2.309 1.5a2.736 2.736 0 0 1-.171.22c-.126.145-.25.249-.371.313a.823.823 0 0 1-.022.011 1.296 1.296 0 0 1-.222.089.978.978 0 0 1-.302.04 1.73 1.73 0 0 1-.49-.092 3.452 3.452 0 0 0-.318-.096 2.948 2.948 0 0 0-.14-.032 1.083 1.083 0 0 0-.209-.02.892.892 0 0 0-.217.025.494.494 0 0 0-.175.086.8.8 0 0 0-.12.113 1.262 1.262 0 0 0-.092.118.849.849 0 0 0-.09.168.609.609 0 0 0-.024.39.698.698 0 0 0 .14.261c.068.082.157.16.266.232a1.956 1.956 0 0 0 .464.22 2.47 2.47 0 0 0 .324.08 2.443 2.443 0 0 0 .44.04c.143 0 .29-.012.44-.037a2.845 2.845 0 0 0 .083-.015 2.438 2.438 0 0 0 .632-.217 2.924 2.924 0 0 0 .375-.225 2.643 2.643 0 0 0 .478-.43c.15-.172.292-.37.425-.599a16.462 16.462 0 0 0 .656.345.37.37 0 0 0 .162.038c.03 0 .06-.003.091-.01a.462.462 0 0 0 .043-.013.369.369 0 0 0 .22-.185.492.492 0 0 0 .013-.027.426.426 0 0 0 .042-.179.386.386 0 0 0-.026-.136.357.357 0 0 0-.19-.21 12.597 12.597 0 0 1-.648-.3 5.912 5.912 0 0 0 .088-.205c.113-.276.2-.553.265-.823a5.11 5.11 0 0 0 .06-.29c.067-.388.079-.748.039-1.073a2.777 2.777 0 0 0-.015-.103 2.2 2.2 0 0 0-.143-.503 1.859 1.859 0 0 0-.229-.399 1.718 1.718 0 0 0-.459-.42 2.732 2.732 0 0 0-.344-.185Zm-4.406-4.934a17 17 0 0 0 1.293-1.877 14.15 14.15 0 0 0 .76-1.5 12.898 12.898 0 0 0 .177-.43l.42-1.079a.85.85 0 0 1 .012-.04.476.476 0 0 1 .044-.105.524.524 0 0 1 .713-.19c.181.104.275.298.259.491a.519.519 0 0 1-.05.181l.003.002-.434 1.112a13.858 13.858 0 0 1-.14.343 15.203 15.203 0 0 1-.867 1.728 18.75 18.75 0 0 1-1.384 2.018h-.005a.527.527 0 0 1-.499.238.517.517 0 0 1-.204-.067.528.528 0 0 1-.025-.015.517.517 0 0 1-.167-.694.348.348 0 0 1 .013-.02.543.543 0 0 1 .081-.096Zm1.507 13.441-.001.001a18.547 18.547 0 0 0-1.386 2.018 15.23 15.23 0 0 0-.775 1.519 14.018 14.018 0 0 0-.231.555l-.434 1.108.002.002a.515.515 0 0 0 .235.604.52.52 0 0 0 .212.066c.015.002.03.002.045.002a.524.524 0 0 0 .453-.257.535.535 0 0 0 .009-.015.448.448 0 0 0 .038-.104l.405-1.038a13.177 13.177 0 0 1 .316-.738 14.237 14.237 0 0 1 .623-1.19 16.27 16.27 0 0 1 1.32-1.918l-.003-.002a82.227 82.227 0 0 1 .017-.02.292.292 0 0 0 .023-.034.51.51 0 0 0-.16-.684.525.525 0 0 0-.03-.02.504.504 0 0 0-.198-.065.51.51 0 0 0-.057-.003.528.528 0 0 0-.423.213Zm2.585-5.17a2.217 2.217 0 0 0 .156-.447c.047-.19.062-.371.047-.544a1.248 1.248 0 0 0-.146-.48.709.709 0 0 0-.002-.005.81.81 0 0 0-.19-.232 1.25 1.25 0 0 0-.193-.134c-.18-.1-.358-.147-.531-.144a1.344 1.344 0 0 0-.5.11 2.42 2.42 0 0 0-.058.028 2.312 2.312 0 0 0-.392.241 14.254 14.254 0 0 0-.207.163 35.75 35.75 0 0 0-.195.156 91.047 91.047 0 0 0 .274.18 39.641 39.641 0 0 0 1.898 1.184 1.83 1.83 0 0 0 .04-.076Zm-5.375-1.13a1.067 1.067 0 0 0 .274-.049 1.58 1.58 0 0 0 .29-.126c.196-.108.404-.266.621-.473a62.771 62.771 0 0 0-.494-.32 32.567 32.567 0 0 0-1.464-.892 2.317 2.317 0 0 0-.112.246 1.7 1.7 0 0 0-.087.306c-.02.104-.03.205-.03.302a1.216 1.216 0 0 0 .018.195 1.171 1.171 0 0 0 .031.14.973.973 0 0 0 .12.264.756.756 0 0 0 .282.268c.183.1.366.146.551.139Zm3.945-12.07v.003" fill="rgba(255, 255, 255, 1)" fill-rule="evenodd" data-name="Banknote"/></svg>