<svg xmlns="http://www.w3.org/2000/svg" width="27.002" height="30" viewBox="170 33.998 27.002 30"><path d="m170 41.243.074 15.53a.544.544 0 0 0 .295.477l12.773 6.494a.578.578 0 0 0 .266.065h.001a.559.559 0 0 0 .133.112.57.57 0 0 0 .287.077.573.573 0 0 0 .267-.066l12.611-6.641a.544.544 0 0 0 .294-.48V40.656l-.001-.013a.03.03 0 0 1 0-.002.012.012 0 0 1 0-.002v-.009a.134.134 0 0 0-.004-.026.169.169 0 0 1-.004-.02 2.658 2.658 0 0 1-.002-.014.487.487 0 0 0-.015-.074.303.303 0 0 0-.014-.034l-.01-.023a.569.569 0 0 0-.039-.073.472.472 0 0 0-.033-.044l-.006-.008a.587.587 0 0 0-.057-.059.608.608 0 0 0-.053-.04.149.149 0 0 1-.016-.012.126.126 0 0 0-.019-.015.118.118 0 0 0-.019-.008l-.02-.008a.134.134 0 0 1-.012-.008l-.018-.01-12.996-6.113a.574.574 0 0 0-.215-.042.577.577 0 0 0-.256.058l-12.846 6.503a.544.544 0 0 0-.309.484l.002.009a.53.53 0 0 0-.04.19.397.397 0 0 0 0 .001Zm14.39 21.297V47.802l11.49-6.235v14.92l-11.49 6.053Zm10.755-21.825-11.322 6.147-11.989-5.812 11.631-5.908 11.68 5.573Zm1.856-.06v-.005m-13.553-6.652h-.003" fill="rgba(255, 255, 255, 1)" fill-rule="evenodd" data-name="Cube Variant With Shadow"/></svg>