<svg xmlns="http://www.w3.org/2000/svg" width="26.311" height="25.381" viewBox="170.841 36.809 26.311 25.381"><path d="M178.668 49.057a42.244 42.244 0 0 0 5.332.326c5.43 0 10.107-.954 12.12-2.316a2.264 2.264 0 0 0 1.019-1.214c.023.094.009 5.166.009 5.166a1.44 1.44 0 0 1-.416.954c-1.027 1.157-3.88 2.1-7.615 2.558a42.375 42.375 0 0 1-5.117.3 44.3 44.3 0 0 1-3.289-.12c-5.67-.423-9.86-1.915-9.86-3.692a364.798 364.798 0 0 1 0-.023c0-.354-.02-4.654-.002-5.106a.295.295 0 0 1 .003-.037 1.588 1.588 0 0 0 .352.639c.988 1.15 3.788 2.094 7.464 2.565Zm17.449 5.368a2.263 2.263 0 0 0 1.018-1.212l.013 5.165a1.44 1.44 0 0 1-.416.954c-1.027 1.157-3.88 2.1-7.615 2.558a42.378 42.378 0 0 1-5.117.3c-7.261 0-13.148-1.706-13.148-3.812l-.001-5.165a1.587 1.587 0 0 0 .352.637c.988 1.15 3.788 2.094 7.464 2.566a42.242 42.242 0 0 0 5.333.326c5.43 0 10.105-.955 12.117-2.317ZM184 36.81a42.379 42.379 0 0 0-5.118.3c-4.719.578-8.03 1.933-8.03 3.512v3.128a1.793 1.793 0 0 0 .854 1.354c1.503 1.147 4.858 2.028 9.005 2.337a44.306 44.306 0 0 0 3.289.12c6.125 0 11.272-1.213 12.732-2.857a1.44 1.44 0 0 0 .416-.954v-3.128c0-1.776-4.19-3.268-9.86-3.691a44.3 44.3 0 0 0-3.288-.12Z" fill="rgba(255, 255, 255, 1)" fill-rule="evenodd" data-name="Database"/></svg>