<svg xmlns="http://www.w3.org/2000/svg" width="26" height="30" viewBox="171 34 26 30"><path d="M172.857 64h22.286c1.025 0 1.857-.84 1.857-1.875v-26.25A1.867 1.867 0 0 0 195.143 34h-22.286c-1.025 0-1.857.84-1.857 1.875v26.25A1.867 1.867 0 0 0 172.857 64Zm0-28.125h22.286v26.25h-22.286v-26.25ZM190.5 45.25h-13a.934.934 0 0 0-.929.937.934.934 0 0 0 .929.938h13a.934.934 0 0 0 .929-.938.934.934 0 0 0-.929-.937Zm0 5.625h-13a.934.934 0 0 0-.929.937c0 .517.417.938.929.938h13a.935.935 0 0 0 .929-.938.935.935 0 0 0-.929-.937Zm0 5.625h-13a.934.934 0 0 0-.929.937c0 .517.417.938.929.938h13a.935.935 0 0 0 .929-.938.935.935 0 0 0-.929-.937Zm0-16.875h-7.429a.934.934 0 0 0-.928.937c0 .518.416.938.928.938h7.429c.511 0 .929-.42.929-.938a.934.934 0 0 0-.929-.937Z" fill="rgba(255, 255, 255, 1)" fill-rule="evenodd" data-name="Document Page With Text Lines"/></svg>