<svg xmlns="http://www.w3.org/2000/svg" width="27.65" height="34.759" viewBox="1.558 4.621 27.65 34.759"><path d="M26.827 20.266a.141.141 0 0 0-.001.016c0 .12.14.297.257.372a4.716 4.716 0 0 1 .369.259c1.766 1.375 2.291 3.822 1.158 5.785a4.546 4.546 0 0 1-2.237 1.949.462.462 0 0 0-.027.013.784.784 0 0 0-.327.343.51.51 0 0 0-.024.059 15.674 15.674 0 0 1-3.125 5.647c-.228.258-.384.58-.58.867-1.328 1.955-3.09 3.266-5.464 3.668a9.518 9.518 0 0 1-1.59.136c-1.52 0-2.945-.386-4.176-1.136a8.074 8.074 0 0 1-2.804-2.936 32.058 32.058 0 0 1-2.813-5.836c-.132-.405-.312-.61-.746-.735a4.42 4.42 0 0 1-3.126-3.805 5.491 5.491 0 0 1-.006-.628 4.362 4.362 0 0 1 2.563-3.88 1.184 1.184 0 0 0 .158-.084c.187-.123.255-.277.247-.545-.017-.514.004-1.033.052-1.546a2.624 2.624 0 0 0 .012-.247c0-.467-.118-.911-.235-1.356a8.757 8.757 0 0 1-.181-.785 3.544 3.544 0 0 1-.006-.035c-.01-.066-.02-.132-.047-.19a2.684 2.684 0 0 1-.005-.013c-.294-.648-.235-1.203.083-1.725a3.095 3.095 0 0 1 .398-.511c.49-.518.926-1.087 1.363-1.655a69.615 69.615 0 0 1 .37-.478.358.358 0 0 0 .032-.05.49.49 0 0 0 .052-.329 8.821 8.821 0 0 1 .104-.106c1.003-1.005 9.011-8.734 14.719-5.254a6.488 6.488 0 0 1 .58.91.985.985 0 0 0 .028.048.706.706 0 0 0 .289.271 1.45 1.45 0 0 0 .192.082c.515.183.994.463 1.494.691a3.946 3.946 0 0 1 1.23.864 4.528 4.528 0 0 1 .892 1.401 27.162 27.162 0 0 0 1.014 2.078c.205.39.41.782.604 1.177.061.124.091.28.091.426a1.022 1.022 0 0 1-.007.123 810.854 810.854 0 0 1-.337 2.713l-.003.024a567.377 567.377 0 0 0-.484 3.943Zm-1.448 7.045a3.762 3.762 0 0 0 1.156-.543 2.818 2.818 0 0 0 1.13-2.29c0-.047-.001-.095-.003-.142a2.94 2.94 0 0 0-.23-1.009c-.505-1.19-1.557-1.805-2.839-1.64a9.3 9.3 0 0 0-.018.242l-.013.184a3.294 3.294 0 0 1-.048.368c-.146.743-.234 1.51-.487 2.217a4.167 4.167 0 0 1-.098.248c-.477 1.104-1.365 1.788-2.617 1.93-.29.033-.588.038-.885.024a9.43 9.43 0 0 1-.812-.076 5.62 5.62 0 0 1-.645-.123c-1.05-.268-1.86-.825-2.416-1.644a4.983 4.983 0 0 1-.725-1.767 6.144 6.144 0 0 0-.264-.833c-.047-.126-.094-.253-.137-.38l-.155-.003a29.003 29.003 0 0 1-.12.422c-.088.306-.177.611-.243.922-.324 1.521-1.19 2.587-2.659 3.113a7.108 7.108 0 0 1-1.305.316 11.547 11.547 0 0 1-.275.039 5.54 5.54 0 0 1-.126.015c-2.007.213-3.456-.763-3.995-2.732a16.327 16.327 0 0 1-.33-1.624 46.84 46.84 0 0 0-.161-.937 2.046 2.046 0 0 0-1.322.195 3.114 3.114 0 0 0-.877.69 3.482 3.482 0 0 0-.315.396c-.543.8-.634 1.716-.247 2.662a3.664 3.664 0 0 0 .207.43c.604 1.059 1.623 1.498 2.932 1.424a13.814 13.814 0 0 0 3.603 6.767c.466-.825.715-1.705 1.445-2.293a.85.85 0 0 1 .006.017c.05.137.05.253.027.363-.03.137-.064.273-.098.409a7.366 7.366 0 0 0-.133.608c-.064.395-.016.759.196 1.057a1.31 1.31 0 0 0 .318.311c.69.485 1.76.394 2.351-.21a.91.91 0 0 1 .095-.085c.188-.145.39-.167.64-.132.298.04.609.037.909.004a34.374 34.374 0 0 0 .01 0c.276-.03.532-.061.739.175a1.743 1.743 0 0 0 .155.156c.333.294.723.398 1.143.393a3.05 3.05 0 0 0 .436-.04 1.78 1.78 0 0 0 .318-.079c.639-.226.977-.797.865-1.525-.053-.343-.156-.678-.226-1.018a1.534 1.534 0 0 1-.022-.263 3.356 3.356 0 0 0-.005-.122 43.34 43.34 0 0 0 .067-.024 43.34 43.34 0 0 1 .067-.024 3.455 3.455 0 0 1 .283.328c.53.693.81 1.557 1.285 2.445a22.573 22.573 0 0 0 .037-.044c.183-.219.34-.413.495-.594a7.842 7.842 0 0 1 .166-.187c1.571-1.714 2.544-3.742 3.12-5.973.058-.227.135-.342.323-.419a1.177 1.177 0 0 1 .158-.05 4.662 4.662 0 0 0 .169-.045Zm-19.066-8.96c.103-.163.174-.346.273-.512.313-.52.568-.987.353-1.677a2.089 2.089 0 0 0-.011-.034c-.282-.855-.067-1.757.448-2.513.478-.7 1.017-1.361 1.57-2.005.113-.13.397-.17.604-.16a1.198 1.198 0 0 1 .02 0 22.688 22.688 0 0 1 4.568.788s2.703 1.003 4.73-.179a3.629 3.629 0 0 0 .591-.43 5.733 5.733 0 0 1 .418-.078 29.778 29.778 0 0 1 1.861-.199 61.261 61.261 0 0 1 .136-.01.451.451 0 0 1 .035-.002c.132 0 .301.053.378.141.658.757 1.325 1.51 1.925 2.312.237.316.359.744.447 1.14a1.378 1.378 0 0 1 .031.212c.023.36-.11.677-.364.95a2.105 2.105 0 0 1-.268.242c.303.613.58 1.234.91 1.826.361.645.205 1.326.257 1.941a225.49 225.49 0 0 1-1.257-.052c-.974-.042-1.934-.084-2.894-.1a50.828 50.828 0 0 0-.101-.001c-1.502-.022-2.978.22-4.455.492a6.113 6.113 0 0 1-1.58.096 4.725 4.725 0 0 1-.949-.17 15.092 15.092 0 0 0-4.219-.548 22.496 22.496 0 0 0-.997.023c-.642.029-1.282.08-1.937.131a114.228 114.228 0 0 1-.767.058 5.034 5.034 0 0 0 0-.056c0-.555-.083-1.113.244-1.626Zm12.9 13.667v.002" fill="inherit" fill-rule="evenodd" data-name="Shape 1"/></svg>